<svg width="564" height="564" xmlns="http://www.w3.org/2000/svg" xmlns:xlink="http://www.w3.org/1999/xlink" xml:space="preserve" overflow="hidden"><defs><clipPath id="clip0"><rect x="930" y="788" width="564" height="564"/></clipPath></defs><g clip-path="url(#clip0)" transform="translate(-930 -788)"><rect x="0" y="0" width="64.6698" height="316.491" fill="#4472C4" fill-opacity="1" transform="matrix(-0.918206 -0.396103 -0.396103 0.918206 1246.94 977.909)"/><path d="M1179.16 979.533 1238.54 953.918 1363.9 1244.52 1304.52 1270.14Z" fill="#4472C4" fill-rule="nonzero" fill-opacity="1"/><rect x="958" y="954" width="406" height="64.9999" fill="#4472C4" fill-opacity="1"/><rect x="1135" y="1120" width="165" height="63.9999" fill="#4472C4" fill-opacity="1"/><path d="M957.045 956.084C1019.68 815 1184.83 751.407 1325.92 814.045 1467 876.683 1530.59 1041.83 1467.95 1182.92 1405.32 1324 1240.17 1387.59 1099.08 1324.95 993.195 1277.94 927.287 1170.48 933.388 1054.78L993.95 1057.97C987.584 1178.68 1080.27 1281.68 1200.97 1288.05 1321.68 1294.41 1424.69 1201.73 1431.05 1081.03 1437.42 960.323 1344.73 857.315 1224.03 850.95 1133.43 846.172 1049.29 897.78 1012.47 980.693Z" fill="#4472C4" fill-rule="evenodd" fill-opacity="1"/></g></svg>